<svg width="32" height="32" viewBox="0 0 32 32" fill="none" xmlns="http://www.w3.org/2000/svg">
<path d="M26.1375 9.02169C26.6875 8.87429 27.1738 8.55007 27.5216 8.09902C27.8691 7.64795 28.0587 7.09507 28.0612 6.5256V6.51883C28.0612 5.83441 27.7894 5.17802 27.3053 4.69407C26.8214 4.21011 26.165 3.93823 25.4806 3.93823H25.474C24.9045 3.94072 24.3518 4.13041 23.9008 4.47804C23.4499 4.82567 23.1256 5.31197 22.9783 5.86199C22.5568 7.38911 21.6458 8.73576 20.3854 9.69544C19.1248 10.6551 17.5843 11.1748 16.0001 11.1748C14.4159 11.1748 12.8754 10.6551 11.6149 9.69544C10.3544 8.73576 9.44348 7.38911 9.02188 5.86199C8.87442 5.31201 8.55018 4.82578 8.09916 4.47824C7.64814 4.13068 7.09535 3.94108 6.52595 3.93866H6.51919C5.83478 3.93866 5.17838 4.21055 4.69443 4.6945C4.21048 5.17846 3.9386 5.83484 3.9386 6.51927V6.52603C3.94112 7.09543 4.1308 7.64821 4.47843 8.09919C4.82606 8.55016 5.31235 8.8743 5.86234 9.02169C7.38946 9.44327 8.73612 10.3542 9.69578 11.6147C10.6554 12.8752 11.1751 14.4157 11.1751 15.9999C11.1751 17.5842 10.6554 19.1246 9.69578 20.3852C8.73612 21.6458 7.38946 22.5566 5.86234 22.9782C5.31237 23.1256 4.82613 23.4497 4.47853 23.9007C4.13093 24.3517 3.94126 24.9044 3.93874 25.4737V25.4805C3.93874 26.165 4.21062 26.8212 4.69458 27.3053C5.17854 27.7892 5.83491 28.0611 6.51933 28.0611H6.5261C7.0955 28.0586 7.64827 27.8689 8.09925 27.5213C8.55021 27.1736 8.87436 26.6873 9.02174 26.1373C9.44333 24.6102 10.3542 23.2636 11.6147 22.3039C12.8752 21.3441 14.4157 20.8245 16 20.8245C17.5842 20.8245 19.1247 21.3441 20.3852 22.3039C21.6456 23.2636 22.5566 24.6102 22.9782 26.1373C23.1255 26.6873 23.4497 27.1737 23.9007 27.5214C24.3516 27.869 24.9045 28.0588 25.474 28.0612H25.4808C26.1651 28.0612 26.8215 27.7892 27.3054 27.3053C27.7894 26.8214 28.0613 26.165 28.0613 25.4806V25.4737C28.0589 24.9043 27.8691 24.3515 27.5216 23.9006C27.1738 23.4496 26.6876 23.1255 26.1376 22.9781C24.6105 22.5565 23.2639 21.6456 22.3042 20.3851C21.3444 19.1245 20.8248 17.584 20.8248 15.9998C20.8248 14.4156 21.3444 12.8751 22.3042 11.6145C23.2639 10.354 24.6105 9.44314 26.1376 9.02154L26.1375 9.02169Z" fill="#AF51C5"/>
<path d="M26.1375 9.02169C26.6875 8.87429 27.1738 8.55007 27.5216 8.09902C27.8691 7.64795 28.0587 7.09507 28.0612 6.5256V6.51883C28.0612 5.83441 27.7894 5.17802 27.3053 4.69407C26.8214 4.21011 26.165 3.93823 25.4806 3.93823H25.474C24.9045 3.94072 24.3518 4.13041 23.9008 4.47804C23.4499 4.82567 23.1256 5.31197 22.9783 5.86199C22.5568 7.38911 21.6458 8.73576 20.3854 9.69544C19.1248 10.6551 17.5843 11.1748 16.0001 11.1748C14.4159 11.1748 12.8754 10.6551 11.6149 9.69544C10.3544 8.73576 9.44348 7.38911 9.02188 5.86199C8.87442 5.31201 8.55018 4.82578 8.09916 4.47824C7.64814 4.13068 7.09535 3.94108 6.52595 3.93866H6.51919C5.83478 3.93866 5.17838 4.21055 4.69443 4.6945C4.21048 5.17846 3.9386 5.83484 3.9386 6.51927V6.52603C3.94112 7.09543 4.1308 7.64821 4.47843 8.09919C4.82606 8.55016 5.31235 8.8743 5.86234 9.02169C7.38946 9.44327 8.73612 10.3542 9.69578 11.6147C10.6554 12.8752 11.1751 14.4157 11.1751 15.9999C11.1751 17.5842 10.6554 19.1246 9.69578 20.3852C8.73612 21.6458 7.38946 22.5566 5.86234 22.9782C5.31237 23.1256 4.82613 23.4497 4.47853 23.9007C4.13093 24.3517 3.94126 24.9044 3.93874 25.4737V25.4805C3.93874 26.165 4.21062 26.8212 4.69458 27.3053C5.17854 27.7892 5.83491 28.0611 6.51933 28.0611H6.5261C7.0955 28.0586 7.64827 27.8689 8.09925 27.5213C8.55021 27.1736 8.87436 26.6873 9.02174 26.1373C9.44333 24.6102 10.3542 23.2636 11.6147 22.3039C12.8752 21.3441 14.4157 20.8245 16 20.8245C17.5842 20.8245 19.1247 21.3441 20.3852 22.3039C21.6456 23.2636 22.5566 24.6102 22.9782 26.1373C23.1255 26.6873 23.4497 27.1737 23.9007 27.5214C24.3516 27.869 24.9045 28.0588 25.474 28.0612H25.4808C26.1651 28.0612 26.8215 27.7892 27.3054 27.3053C27.7894 26.8214 28.0613 26.165 28.0613 25.4806V25.4737C28.0589 24.9043 27.8691 24.3515 27.5216 23.9006C27.1738 23.4496 26.6876 23.1255 26.1376 22.9781C24.6105 22.5565 23.2639 21.6456 22.3042 20.3851C21.3444 19.1245 20.8248 17.584 20.8248 15.9998C20.8248 14.4156 21.3444 12.8751 22.3042 11.6145C23.2639 10.354 24.6105 9.44314 26.1376 9.02154L26.1375 9.02169Z" fill="url(#paint0_linear_10817_2)"/>
<path d="M3.37666 1.52855C3.45967 1.61111 3.56635 1.66575 3.68185 1.68487C3.79735 1.70399 3.91593 1.68664 4.02113 1.63524C4.98087 1.17175 6.06075 1.01737 7.1119 1.1934C8.16307 1.36943 9.13374 1.86719 9.89012 2.61806C9.99439 2.72313 10.1353 2.78372 10.2833 2.7871C10.4313 2.79048 10.5748 2.7364 10.6838 2.63621C10.7379 2.58453 10.7812 2.52256 10.811 2.45392C10.8408 2.38529 10.8567 2.31138 10.8576 2.23654C10.8584 2.1617 10.8443 2.08745 10.8161 2.01813C10.7878 1.94882 10.746 1.88585 10.6931 1.83293C9.77075 0.912824 8.5849 0.302587 7.30004 0.0868719C6.01521 -0.128843 4.69508 0.060661 3.52281 0.629092C3.443 0.668668 3.37376 0.726705 3.32086 0.798388C3.26796 0.870071 3.23291 0.953335 3.21862 1.04127C3.20433 1.12921 3.21121 1.21928 3.2387 1.30403C3.26619 1.38877 3.31349 1.46574 3.37666 1.52855Z" fill="#AF51C5"/>
<path d="M3.37666 1.52855C3.45967 1.61111 3.56635 1.66575 3.68185 1.68487C3.79735 1.70399 3.91593 1.68664 4.02113 1.63524C4.98087 1.17175 6.06075 1.01737 7.1119 1.1934C8.16307 1.36943 9.13374 1.86719 9.89012 2.61806C9.99439 2.72313 10.1353 2.78372 10.2833 2.7871C10.4313 2.79048 10.5748 2.7364 10.6838 2.63621C10.7379 2.58453 10.7812 2.52256 10.811 2.45392C10.8408 2.38529 10.8567 2.31138 10.8576 2.23654C10.8584 2.1617 10.8443 2.08745 10.8161 2.01813C10.7878 1.94882 10.746 1.88585 10.6931 1.83293C9.77075 0.912824 8.5849 0.302587 7.30004 0.0868719C6.01521 -0.128843 4.69508 0.060661 3.52281 0.629092C3.443 0.668668 3.37376 0.726705 3.32086 0.798388C3.26796 0.870071 3.23291 0.953335 3.21862 1.04127C3.20433 1.12921 3.21121 1.21928 3.2387 1.30403C3.26619 1.38877 3.31349 1.46574 3.37666 1.52855Z" fill="url(#paint1_linear_10817_2)"/>
<path d="M0.631079 3.51837C0.0633445 4.68687 -0.127777 6.00276 0.0840819 7.28449C0.295941 8.56624 0.90034 9.75064 1.81389 10.6743C1.90996 10.7753 2.03933 10.838 2.17808 10.8509C2.31682 10.8639 2.45556 10.8262 2.56865 10.7447C2.6327 10.6963 2.68565 10.6347 2.72389 10.5641C2.76213 10.4935 2.78479 10.4155 2.79032 10.3354C2.79586 10.2553 2.78416 10.175 2.75601 10.0998C2.72785 10.0246 2.68389 9.95629 2.6271 9.89954C1.87239 9.14298 1.37164 8.17043 1.19423 7.11664C1.01682 6.06283 1.17154 4.97993 1.63694 4.01799C1.68873 3.91268 1.70637 3.79383 1.68739 3.67803C1.66843 3.56221 1.61379 3.45522 1.53111 3.37194C1.46825 3.3087 1.39123 3.26137 1.30642 3.23387C1.22161 3.20638 1.13146 3.1995 1.04346 3.21381C0.955465 3.22814 0.872148 3.26323 0.800428 3.3162C0.728709 3.36916 0.670651 3.43847 0.631079 3.51837Z" fill="#AF51C5"/>
<path d="M0.631079 3.51837C0.0633445 4.68687 -0.127777 6.00276 0.0840819 7.28449C0.295941 8.56624 0.90034 9.75064 1.81389 10.6743C1.90996 10.7753 2.03933 10.838 2.17808 10.8509C2.31682 10.8639 2.45556 10.8262 2.56865 10.7447C2.6327 10.6963 2.68565 10.6347 2.72389 10.5641C2.76213 10.4935 2.78479 10.4155 2.79032 10.3354C2.79586 10.2553 2.78416 10.175 2.75601 10.0998C2.72785 10.0246 2.68389 9.95629 2.6271 9.89954C1.87239 9.14298 1.37164 8.17043 1.19423 7.11664C1.01682 6.06283 1.17154 4.97993 1.63694 4.01799C1.68873 3.91268 1.70637 3.79383 1.68739 3.67803C1.66843 3.56221 1.61379 3.45522 1.53111 3.37194C1.46825 3.3087 1.39123 3.26137 1.30642 3.23387C1.22161 3.20638 1.13146 3.1995 1.04346 3.21381C0.955465 3.22814 0.872148 3.26323 0.800428 3.3162C0.728709 3.36916 0.670651 3.43847 0.631079 3.51837Z" fill="url(#paint2_linear_10817_2)"/>
<path d="M27.9793 30.3649C27.0193 30.8285 25.9391 30.9828 24.8876 30.8064C23.8363 30.6302 22.8654 30.132 22.1091 29.3807C22.005 29.2762 21.8646 29.2159 21.7171 29.2126C21.5696 29.2091 21.4266 29.263 21.3179 29.3627C21.2634 29.4143 21.22 29.4763 21.1899 29.545C21.1599 29.6137 21.1439 29.6877 21.1429 29.7627C21.1419 29.8377 21.156 29.9122 21.1843 29.9816C21.2125 30.0511 21.2544 30.1142 21.3074 30.1672C22.2297 31.0872 23.4155 31.6974 24.7004 31.9132C25.9852 32.1289 27.3054 31.9394 28.4777 31.371C28.5574 31.3314 28.6267 31.2734 28.6797 31.2017C28.7325 31.13 28.7675 31.0468 28.7818 30.9588C28.796 30.8708 28.7891 30.7807 28.7616 30.696C28.7341 30.6112 28.6867 30.5343 28.6235 30.4715C28.5406 30.389 28.4339 30.3345 28.3184 30.3153C28.2031 30.2962 28.0844 30.3135 27.9793 30.3649Z" fill="#AF51C5"/>
<path d="M27.9793 30.3649C27.0193 30.8285 25.9391 30.9828 24.8876 30.8064C23.8363 30.6302 22.8654 30.132 22.1091 29.3807C22.005 29.2762 21.8646 29.2159 21.7171 29.2126C21.5696 29.2091 21.4266 29.263 21.3179 29.3627C21.2634 29.4143 21.22 29.4763 21.1899 29.545C21.1599 29.6137 21.1439 29.6877 21.1429 29.7627C21.1419 29.8377 21.156 29.9122 21.1843 29.9816C21.2125 30.0511 21.2544 30.1142 21.3074 30.1672C22.2297 31.0872 23.4155 31.6974 24.7004 31.9132C25.9852 32.1289 27.3054 31.9394 28.4777 31.371C28.5574 31.3314 28.6267 31.2734 28.6797 31.2017C28.7325 31.13 28.7675 31.0468 28.7818 30.9588C28.796 30.8708 28.7891 30.7807 28.7616 30.696C28.7341 30.6112 28.6867 30.5343 28.6235 30.4715C28.5406 30.389 28.4339 30.3345 28.3184 30.3153C28.2031 30.2962 28.0844 30.3135 27.9793 30.3649Z" fill="url(#paint3_linear_10817_2)"/>
<path d="M29.3627 21.3173C29.2629 21.426 29.209 21.569 29.2125 21.7165C29.2158 21.864 29.2761 22.0045 29.3807 22.1085C30.1325 22.8654 30.6309 23.8371 30.8067 24.8893C30.9826 25.9417 30.8274 27.0226 30.3626 27.9829C30.3111 28.0882 30.2937 28.2068 30.3127 28.3225C30.3318 28.4381 30.3864 28.5449 30.469 28.628C30.5318 28.6912 30.6087 28.7384 30.6934 28.7661C30.778 28.7936 30.868 28.8005 30.956 28.7862C31.0438 28.772 31.1272 28.7371 31.1987 28.6843C31.2704 28.6314 31.3286 28.5623 31.3682 28.4826C31.9384 27.31 32.1291 25.9889 31.914 24.703C31.6989 23.417 31.0886 22.23 30.1678 21.3068C30.1148 21.2536 30.0516 21.2117 29.9821 21.1834C29.9125 21.155 29.8381 21.1409 29.7631 21.1419C29.6879 21.1429 29.6139 21.1589 29.5451 21.1891C29.4763 21.2192 29.4144 21.2627 29.3627 21.3173Z" fill="#AF51C5"/>
<path d="M29.3627 21.3173C29.2629 21.426 29.209 21.569 29.2125 21.7165C29.2158 21.864 29.2761 22.0045 29.3807 22.1085C30.1325 22.8654 30.6309 23.8371 30.8067 24.8893C30.9826 25.9417 30.8274 27.0226 30.3626 27.9829C30.3111 28.0882 30.2937 28.2068 30.3127 28.3225C30.3318 28.4381 30.3864 28.5449 30.469 28.628C30.5318 28.6912 30.6087 28.7384 30.6934 28.7661C30.778 28.7936 30.868 28.8005 30.956 28.7862C31.0438 28.772 31.1272 28.7371 31.1987 28.6843C31.2704 28.6314 31.3286 28.5623 31.3682 28.4826C31.9384 27.31 32.1291 25.9889 31.914 24.703C31.6989 23.417 31.0886 22.23 30.1678 21.3068C30.1148 21.2536 30.0516 21.2117 29.9821 21.1834C29.9125 21.155 29.8381 21.1409 29.7631 21.1419C29.6879 21.1429 29.6139 21.1589 29.5451 21.1891C29.4763 21.2192 29.4144 21.2627 29.3627 21.3173Z" fill="url(#paint4_linear_10817_2)"/>
<path d="M30.3636 4.01874C30.828 4.97892 30.9828 6.05955 30.8067 7.11146C30.6306 8.16337 30.1323 9.13469 29.3807 9.89136C29.2761 9.99536 29.2158 10.1358 29.2125 10.2833C29.209 10.4307 29.2629 10.5737 29.3627 10.6824C29.4142 10.7368 29.4763 10.7803 29.545 10.8104C29.6136 10.8404 29.6876 10.8565 29.7627 10.8574C29.8377 10.8584 29.912 10.8444 29.9815 10.8162C30.0509 10.7879 30.1141 10.7461 30.1671 10.6931C31.0876 9.77026 31.6981 8.58376 31.9135 7.29826C32.129 6.01279 31.9389 4.69209 31.3696 3.51955C31.33 3.43977 31.2719 3.3706 31.2002 3.31776C31.1285 3.26491 31.0452 3.22992 30.9573 3.21569C30.8694 3.20147 30.7793 3.20839 30.6946 3.23592C30.6098 3.26345 30.533 3.31078 30.4702 3.37399C30.3877 3.45705 30.333 3.56379 30.3138 3.67933C30.2948 3.79489 30.3122 3.91352 30.3636 4.01874Z" fill="#AF51C5"/>
<path d="M30.3636 4.01874C30.828 4.97892 30.9828 6.05955 30.8067 7.11146C30.6306 8.16337 30.1323 9.13469 29.3807 9.89136C29.2761 9.99536 29.2158 10.1358 29.2125 10.2833C29.209 10.4307 29.2629 10.5737 29.3627 10.6824C29.4142 10.7368 29.4763 10.7803 29.545 10.8104C29.6136 10.8404 29.6876 10.8565 29.7627 10.8574C29.8377 10.8584 29.912 10.8444 29.9815 10.8162C30.0509 10.7879 30.1141 10.7461 30.1671 10.6931C31.0876 9.77026 31.6981 8.58376 31.9135 7.29826C32.129 6.01279 31.9389 4.69209 31.3696 3.51955C31.33 3.43977 31.2719 3.3706 31.2002 3.31776C31.1285 3.26491 31.0452 3.22992 30.9573 3.21569C30.8694 3.20147 30.7793 3.20839 30.6946 3.23592C30.6098 3.26345 30.533 3.31078 30.4702 3.37399C30.3877 3.45705 30.333 3.56379 30.3138 3.67933C30.2948 3.79489 30.3122 3.91352 30.3636 4.01874Z" fill="url(#paint5_linear_10817_2)"/>
<path d="M22.1087 2.61927C22.8654 1.86758 23.8367 1.3693 24.8886 1.1932C25.9405 1.01711 27.0211 1.17188 27.9813 1.63616C28.0866 1.68769 28.2052 1.70513 28.3207 1.68605C28.4363 1.66699 28.543 1.61235 28.6261 1.52976C28.6893 1.467 28.7367 1.39006 28.7642 1.30534C28.7917 1.22063 28.7986 1.13057 28.7843 1.04264C28.7702 0.954705 28.7352 0.871432 28.6824 0.799725C28.6295 0.728016 28.5603 0.669937 28.4805 0.630305C27.3079 0.0609835 25.9873 -0.129126 24.7019 0.0863709C23.4164 0.301869 22.2298 0.912276 21.3071 1.83284C21.2541 1.88587 21.2122 1.94896 21.184 2.01842C21.1557 2.08789 21.1416 2.1623 21.1426 2.23727C21.1436 2.31226 21.1596 2.38628 21.1896 2.45498C21.2197 2.52368 21.2631 2.58567 21.3176 2.63727C21.4263 2.73699 21.5692 2.7908 21.7168 2.78745C21.8643 2.78409 22.0046 2.72383 22.1087 2.61927Z" fill="#AF51C5"/>
<path d="M22.1087 2.61927C22.8654 1.86758 23.8367 1.3693 24.8886 1.1932C25.9405 1.01711 27.0211 1.17188 27.9813 1.63616C28.0866 1.68769 28.2052 1.70513 28.3207 1.68605C28.4363 1.66699 28.543 1.61235 28.6261 1.52976C28.6893 1.467 28.7367 1.39006 28.7642 1.30534C28.7917 1.22063 28.7986 1.13057 28.7843 1.04264C28.7702 0.954705 28.7352 0.871432 28.6824 0.799725C28.6295 0.728016 28.5603 0.669937 28.4805 0.630305C27.3079 0.0609835 25.9873 -0.129126 24.7019 0.0863709C23.4164 0.301869 22.2298 0.912276 21.3071 1.83284C21.2541 1.88587 21.2122 1.94896 21.184 2.01842C21.1557 2.08789 21.1416 2.1623 21.1426 2.23727C21.1436 2.31226 21.1596 2.38628 21.1896 2.45498C21.2197 2.52368 21.2631 2.58567 21.3176 2.63727C21.4263 2.73699 21.5692 2.7908 21.7168 2.78745C21.8643 2.78409 22.0046 2.72383 22.1087 2.61927Z" fill="url(#paint6_linear_10817_2)"/>
<path d="M9.89151 29.3809C9.13486 30.1325 8.16354 30.6308 7.11164 30.8069C6.05972 30.983 4.9791 30.8282 4.01892 30.3638C3.91371 30.3124 3.79507 30.295 3.67952 30.314C3.56396 30.3332 3.45723 30.3879 3.37417 30.4704C3.31097 30.5332 3.26365 30.61 3.23612 30.6948C3.20859 30.7795 3.20165 30.8696 3.21587 30.9575C3.23011 31.0454 3.2651 31.1287 3.31794 31.2004C3.37078 31.2721 3.43997 31.3302 3.51973 31.3698C4.69226 31.9391 6.01295 32.1292 7.29844 31.9137C8.58392 31.6983 9.77042 31.0878 10.6932 30.1673C10.7462 30.1143 10.7881 30.0511 10.8163 29.9817C10.8445 29.9123 10.8586 29.8379 10.8576 29.7628C10.8566 29.6878 10.8406 29.6138 10.8105 29.5451C10.7805 29.4765 10.7369 29.4144 10.6825 29.3629C10.5739 29.2631 10.4309 29.2092 10.2834 29.2125C10.1359 29.216 9.99549 29.2762 9.89151 29.3809Z" fill="#AF51C5"/>
<path d="M9.89151 29.3809C9.13486 30.1325 8.16354 30.6308 7.11164 30.8069C6.05972 30.983 4.9791 30.8282 4.01892 30.3638C3.91371 30.3124 3.79507 30.295 3.67952 30.314C3.56396 30.3332 3.45723 30.3879 3.37417 30.4704C3.31097 30.5332 3.26365 30.61 3.23612 30.6948C3.20859 30.7795 3.20165 30.8696 3.21587 30.9575C3.23011 31.0454 3.2651 31.1287 3.31794 31.2004C3.37078 31.2721 3.43997 31.3302 3.51973 31.3698C4.69226 31.9391 6.01295 32.1292 7.29844 31.9137C8.58392 31.6983 9.77042 31.0878 10.6932 30.1673C10.7462 30.1143 10.7881 30.0511 10.8163 29.9817C10.8445 29.9123 10.8586 29.8379 10.8576 29.7628C10.8566 29.6878 10.8406 29.6138 10.8105 29.5451C10.7805 29.4765 10.7369 29.4144 10.6825 29.3629C10.5739 29.2631 10.4309 29.2092 10.2834 29.2125C10.1359 29.216 9.99549 29.2762 9.89151 29.3809Z" fill="url(#paint7_linear_10817_2)"/>
<path d="M1.63637 27.9811C1.17202 27.0209 1.0172 25.9403 1.19327 24.8884C1.36935 23.8364 1.86763 22.8651 2.61933 22.1085C2.72388 22.0044 2.78415 21.864 2.7875 21.7166C2.79086 21.569 2.73704 21.426 2.63733 21.3173C2.58571 21.2629 2.52373 21.2194 2.45503 21.1893C2.38633 21.1594 2.3123 21.1434 2.23733 21.1424C2.16236 21.1414 2.08794 21.1555 2.01848 21.1837C1.94902 21.2119 1.88592 21.2538 1.8329 21.3068C0.912337 22.2296 0.301927 23.4162 0.0864315 24.7016C-0.129065 25.9871 0.0610443 27.3077 0.630363 28.4803C0.669994 28.5601 0.728073 28.6293 0.799781 28.6822C0.871489 28.735 0.954761 28.77 1.04269 28.7841C1.13063 28.7984 1.22069 28.7915 1.3054 28.764C1.39012 28.7365 1.46704 28.6891 1.52982 28.6259C1.61239 28.5428 1.66702 28.4361 1.68613 28.3205C1.70522 28.205 1.68783 28.0864 1.63637 27.9811Z" fill="#AF51C5"/>
<path d="M1.63637 27.9811C1.17202 27.0209 1.0172 25.9403 1.19327 24.8884C1.36935 23.8364 1.86763 22.8651 2.61933 22.1085C2.72388 22.0044 2.78415 21.864 2.7875 21.7166C2.79086 21.569 2.73704 21.426 2.63733 21.3173C2.58571 21.2629 2.52373 21.2194 2.45503 21.1893C2.38633 21.1594 2.3123 21.1434 2.23733 21.1424C2.16236 21.1414 2.08794 21.1555 2.01848 21.1837C1.94902 21.2119 1.88592 21.2538 1.8329 21.3068C0.912337 22.2296 0.301927 23.4162 0.0864315 24.7016C-0.129065 25.9871 0.0610443 27.3077 0.630363 28.4803C0.669994 28.5601 0.728073 28.6293 0.799781 28.6822C0.871489 28.735 0.954761 28.77 1.04269 28.7841C1.13063 28.7984 1.22069 28.7915 1.3054 28.764C1.39012 28.7365 1.46704 28.6891 1.52982 28.6259C1.61239 28.5428 1.66702 28.4361 1.68613 28.3205C1.70522 28.205 1.68783 28.0864 1.63637 27.9811Z" fill="url(#paint8_linear_10817_2)"/>
<defs>
<linearGradient id="paint0_linear_10817_2" x1="11.8047" y1="-6.55002" x2="23.102" y2="41.5057" gradientUnits="userSpaceOnUse">
<stop stop-color="#2F79CB"/>
<stop offset="1" stop-color="#AF51C5"/>
</linearGradient>
<linearGradient id="paint1_linear_10817_2" x1="5.70469" y1="-1.2115" x2="6.20306" y2="4.60467" gradientUnits="userSpaceOnUse">
<stop stop-color="#2F79CB"/>
<stop offset="1" stop-color="#AF51C5"/>
</linearGradient>
<linearGradient id="paint2_linear_10817_2" x1="0.910363" y1="-0.118193" x2="8.22783" y2="11.245" gradientUnits="userSpaceOnUse">
<stop stop-color="#2F79CB"/>
<stop offset="1" stop-color="#AF51C5"/>
</linearGradient>
<linearGradient id="paint3_linear_10817_2" x1="23.6362" y1="28.0005" x2="24.1347" y2="33.8176" gradientUnits="userSpaceOnUse">
<stop stop-color="#2F79CB"/>
<stop offset="1" stop-color="#AF51C5"/>
</linearGradient>
<linearGradient id="paint4_linear_10817_2" x1="30.1214" y1="17.8151" x2="37.4494" y2="29.1718" gradientUnits="userSpaceOnUse">
<stop stop-color="#2F79CB"/>
<stop offset="1" stop-color="#AF51C5"/>
</linearGradient>
<linearGradient id="paint5_linear_10817_2" x1="30.1213" y1="-0.117154" x2="37.446" y2="11.2376" gradientUnits="userSpaceOnUse">
<stop stop-color="#2F79CB"/>
<stop offset="1" stop-color="#AF51C5"/>
</linearGradient>
<linearGradient id="paint6_linear_10817_2" x1="23.6368" y1="-1.212" x2="24.1352" y2="4.60541" gradientUnits="userSpaceOnUse">
<stop stop-color="#2F79CB"/>
<stop offset="1" stop-color="#AF51C5"/>
</linearGradient>
<linearGradient id="paint7_linear_10817_2" x1="5.7029" y1="28.0004" x2="6.20133" y2="33.8179" gradientUnits="userSpaceOnUse">
<stop stop-color="#2F79CB"/>
<stop offset="1" stop-color="#AF51C5"/>
</linearGradient>
<linearGradient id="paint8_linear_10817_2" x1="0.909055" y1="17.8167" x2="8.23373" y2="29.1716" gradientUnits="userSpaceOnUse">
<stop stop-color="#2F79CB"/>
<stop offset="1" stop-color="#AF51C5"/>
</linearGradient>
</defs>
</svg>
